<svg xmlns="http://www.w3.org/2000/svg" xmlns:xlink="http://www.w3.org/1999/xlink" zoomAndPan="magnify" preserveAspectRatio="xMidYMid meet" version="1.0" viewBox="177.01 355.06 458.32 81.13"><defs><g/></defs><g fill="#ffffff" fill-opacity="1"><g transform="translate(174.666674, 434.624998)"><g><path d="M 2.34375 0 L 2.34375 -0.78125 C 4.570312 -0.78125 6.191406 -1.457031 7.203125 -2.8125 C 8.222656 -4.164062 8.863281 -6.375 9.125 -9.4375 C 9.382812 -12.507812 9.515625 -16.59375 9.515625 -21.6875 L 9.515625 -56.3125 C 9.515625 -61.457031 9.382812 -65.550781 9.125 -68.59375 C 8.863281 -71.644531 8.222656 -73.84375 7.203125 -75.1875 C 6.191406 -76.539062 4.570312 -77.21875 2.34375 -77.21875 L 2.34375 -78 L 11.703125 -78 C 14.554688 -78 17.164062 -78.128906 19.53125 -78.390625 C 21.90625 -78.648438 24.300781 -78.910156 26.71875 -79.171875 C 29.132812 -79.429688 31.847656 -79.5625 34.859375 -79.5625 C 40.429688 -79.5625 45.140625 -78.609375 48.984375 -76.703125 C 52.828125 -74.804688 55.75 -72.21875 57.75 -68.9375 C 59.757812 -65.664062 60.765625 -61.898438 60.765625 -57.640625 C 60.765625 -54.109375 59.835938 -50.78125 57.984375 -47.65625 C 56.140625 -44.539062 53.550781 -42.03125 50.21875 -40.125 C 46.894531 -38.226562 42.972656 -37.28125 38.453125 -37.28125 C 36.628906 -37.28125 34.9375 -37.523438 33.375 -38.015625 C 31.820312 -38.515625 30.40625 -39.101562 29.125 -39.78125 C 27.851562 -40.457031 26.695312 -41.039062 25.65625 -41.53125 C 24.625 -42.03125 23.691406 -42.28125 22.859375 -42.28125 C 22.390625 -42.28125 21.894531 -42.160156 21.375 -41.921875 C 20.851562 -41.691406 20.59375 -41.132812 20.59375 -40.25 C 20.59375 -39.257812 21.164062 -38.375 22.3125 -37.59375 C 23.457031 -36.8125 24.9375 -36.03125 26.75 -35.25 C 28.570312 -34.476562 30.519531 -33.625 32.59375 -32.6875 C 34.675781 -31.75 36.679688 -30.601562 38.609375 -29.25 C 40.535156 -27.894531 42.125 -26.234375 43.375 -24.265625 C 44.925781 -21.867188 46.535156 -19.304688 48.203125 -16.578125 C 49.867188 -13.847656 51.625 -11.285156 53.46875 -8.890625 C 55.3125 -6.492188 57.25 -4.539062 59.28125 -3.03125 C 61.3125 -1.53125 63.441406 -0.78125 65.671875 -0.78125 L 65.671875 0 L 53.734375 0 C 52.859375 0 51.988281 -0.363281 51.125 -1.09375 C 50.269531 -1.820312 49.21875 -3.054688 47.96875 -4.796875 C 46.71875 -6.535156 45.117188 -8.910156 43.171875 -11.921875 C 41.222656 -14.941406 38.710938 -18.769531 35.640625 -23.40625 C 33.773438 -26.257812 31.90625 -28.519531 30.03125 -30.1875 C 28.15625 -31.851562 26.453125 -33.191406 24.921875 -34.203125 C 23.390625 -35.210938 22.15625 -36.171875 21.21875 -37.078125 C 20.28125 -37.992188 19.8125 -39.101562 19.8125 -40.40625 C 19.8125 -41.34375 20.097656 -42.019531 20.671875 -42.4375 C 21.242188 -42.851562 21.867188 -43.0625 22.546875 -43.0625 C 23.691406 -43.0625 24.804688 -42.835938 25.890625 -42.390625 C 26.984375 -41.953125 28.113281 -41.429688 29.28125 -40.828125 C 30.457031 -40.234375 31.742188 -39.710938 33.140625 -39.265625 C 34.546875 -38.828125 36.160156 -38.609375 37.984375 -38.609375 C 40.429688 -38.609375 42.640625 -39.15625 44.609375 -40.25 C 46.585938 -41.34375 48.28125 -42.785156 49.6875 -44.578125 C 51.09375 -46.367188 52.171875 -48.394531 52.921875 -50.65625 C 53.671875 -52.914062 54.046875 -55.21875 54.046875 -57.5625 C 54.046875 -61.875 53.082031 -65.585938 51.15625 -68.703125 C 49.238281 -71.828125 46.507812 -74.234375 42.96875 -75.921875 C 39.4375 -77.617188 35.253906 -78.46875 30.421875 -78.46875 C 27.554688 -78.46875 25.054688 -78.269531 22.921875 -77.875 C 20.796875 -77.488281 18.535156 -76.851562 16.140625 -75.96875 L 16.140625 -21.6875 C 16.140625 -16.59375 16.269531 -12.507812 16.53125 -9.4375 C 16.789062 -6.375 17.425781 -4.164062 18.4375 -2.8125 C 19.457031 -1.457031 21.085938 -0.78125 23.328125 -0.78125 L 23.328125 0 Z M 2.34375 0 "/></g></g></g><g fill="#ffffff" fill-opacity="1"><g transform="translate(250.94167, 434.624998)"><g><path d="M 2.34375 -77.21875 L 2.34375 -78 L 23.40625 -78 L 23.40625 -77.21875 C 21.164062 -77.21875 19.535156 -76.539062 18.515625 -75.1875 C 17.503906 -73.84375 16.867188 -71.644531 16.609375 -68.59375 C 16.347656 -65.550781 16.21875 -61.457031 16.21875 -56.3125 L 16.21875 -21.6875 C 16.21875 -16.59375 16.347656 -12.507812 16.609375 -9.4375 C 16.867188 -6.375 17.503906 -4.164062 18.515625 -2.8125 C 19.535156 -1.457031 21.164062 -0.78125 23.40625 -0.78125 L 23.40625 0 L 2.34375 0 L 2.34375 -0.78125 C 4.570312 -0.78125 6.191406 -1.457031 7.203125 -2.8125 C 8.222656 -4.164062 8.863281 -6.375 9.125 -9.4375 C 9.382812 -12.507812 9.515625 -16.59375 9.515625 -21.6875 L 9.515625 -56.3125 C 9.515625 -61.457031 9.382812 -65.550781 9.125 -68.59375 C 8.863281 -71.644531 8.222656 -73.84375 7.203125 -75.1875 C 6.191406 -76.539062 4.570312 -77.21875 2.34375 -77.21875 Z M 2.34375 -77.21875 "/></g></g></g><g fill="#ffffff" fill-opacity="1"><g transform="translate(284.93542, 434.624998)"><g><path d="M 2.34375 -78 L 56.859375 -78 L 56.859375 -67.46875 L 56.078125 -67.46875 C 56.078125 -67.570312 56.085938 -67.609375 56.109375 -67.578125 C 56.140625 -67.554688 56.15625 -67.625 56.15625 -67.78125 C 56.15625 -69.550781 55.15625 -71.132812 53.15625 -72.53125 C 51.15625 -73.9375 48.398438 -75.066406 44.890625 -75.921875 C 41.378906 -76.785156 37.390625 -77.21875 32.921875 -77.21875 L 32.921875 -21.6875 C 32.921875 -16.59375 33 -12.507812 33.15625 -9.4375 C 33.3125 -6.375 33.84375 -4.164062 34.75 -2.8125 C 35.65625 -1.457031 37.226562 -0.78125 39.46875 -0.78125 L 39.46875 0 L 19.109375 0 L 19.109375 -0.78125 C 21.347656 -0.78125 22.972656 -1.457031 23.984375 -2.8125 C 24.992188 -4.164062 25.628906 -6.375 25.890625 -9.4375 C 26.148438 -12.507812 26.28125 -16.59375 26.28125 -21.6875 L 26.28125 -77.21875 C 21.8125 -77.21875 17.820312 -76.785156 14.3125 -75.921875 C 10.800781 -75.066406 8.046875 -73.9375 6.046875 -72.53125 C 4.046875 -71.132812 3.046875 -69.550781 3.046875 -67.78125 C 3.046875 -67.625 3.054688 -67.554688 3.078125 -67.578125 C 3.109375 -67.609375 3.125 -67.570312 3.125 -67.46875 L 2.34375 -67.46875 Z M 2.34375 -78 "/></g></g></g><g fill="#ffffff" fill-opacity="1"><g transform="translate(352.388539, 434.624998)"><g><path d="M 0 -77.21875 L 0 -78 L 25.578125 -78 L 25.578125 -77.21875 C 22.828125 -77.21875 20.734375 -76.851562 19.296875 -76.125 C 17.867188 -75.394531 16.945312 -74.378906 16.53125 -73.078125 C 16.113281 -71.785156 16.0625 -70.28125 16.375 -68.5625 C 16.6875 -66.84375 17.207031 -65 17.9375 -63.03125 L 39 -7.484375 C 42.226562 -16.691406 45.582031 -25.894531 49.0625 -35.09375 C 52.539062 -44.300781 55.789062 -53.535156 58.8125 -62.796875 C 59.332031 -64.347656 59.671875 -65.96875 59.828125 -67.65625 C 59.984375 -69.351562 59.800781 -70.914062 59.28125 -72.34375 C 58.757812 -73.769531 57.769531 -74.9375 56.3125 -75.84375 C 54.851562 -76.757812 52.75 -77.21875 50 -77.21875 L 50 -78 L 72.078125 -78 L 72.078125 -77.21875 C 69.679688 -77.21875 67.710938 -76.148438 66.171875 -74.015625 C 64.640625 -71.890625 63.046875 -68.664062 61.390625 -64.34375 L 36.421875 1.5625 L 35.640625 1.5625 L 10.6875 -64.34375 C 8.96875 -68.664062 7.351562 -71.890625 5.84375 -74.015625 C 4.34375 -76.148438 2.394531 -77.21875 0 -77.21875 Z M 0 -77.21875 "/></g></g></g><g fill="#ffffff" fill-opacity="1"><g transform="translate(566.998919, 434.624998)"><g><path d="M 2.34375 -13.65625 C 2.34375 -16.875 3.09375 -19.769531 4.59375 -22.34375 C 6.101562 -24.914062 8.039062 -27.253906 10.40625 -29.359375 C 12.78125 -31.472656 15.289062 -33.398438 17.9375 -35.140625 C 20.59375 -36.878906 23.101562 -38.488281 25.46875 -39.96875 C 27.832031 -41.457031 29.769531 -42.875 31.28125 -44.21875 C 32.789062 -45.570312 33.546875 -46.925781 33.546875 -48.28125 C 33.546875 -49.007812 33.363281 -49.539062 33 -49.875 C 32.632812 -50.21875 32.191406 -50.390625 31.671875 -50.390625 C 30.734375 -50.390625 29.859375 -49.972656 29.046875 -49.140625 C 28.242188 -48.304688 27.453125 -47.351562 26.671875 -46.28125 C 25.890625 -45.21875 25.046875 -44.269531 24.140625 -43.4375 C 23.234375 -42.613281 22.234375 -42.203125 21.140625 -42.203125 C 20.046875 -42.203125 19.378906 -42.640625 19.140625 -43.515625 C 18.910156 -44.398438 18.976562 -45.335938 19.34375 -46.328125 C 20.539062 -49.453125 21.632812 -52.351562 22.625 -55.03125 C 23.613281 -57.707031 24.585938 -60.304688 25.546875 -62.828125 C 26.503906 -65.347656 27.488281 -67.957031 28.5 -70.65625 C 29.519531 -73.363281 30.65625 -76.332031 31.90625 -79.5625 L 32.6875 -79.5625 L 57.640625 -13.65625 C 59.359375 -9.382812 60.96875 -6.171875 62.46875 -4.015625 C 63.976562 -1.859375 65.929688 -0.78125 68.328125 -0.78125 L 68.328125 0 L 42.75 0 L 42.75 -0.78125 C 45.5 -0.78125 47.585938 -1.144531 49.015625 -1.875 C 50.453125 -2.601562 51.378906 -3.613281 51.796875 -4.90625 C 52.210938 -6.207031 52.265625 -7.71875 51.953125 -9.4375 C 51.640625 -11.15625 51.117188 -13 50.390625 -14.96875 L 40.71875 -40.484375 C 41.03125 -37.984375 41.1875 -34.863281 41.1875 -31.125 C 41.1875 -24.832031 40.207031 -19.210938 38.25 -14.265625 C 36.300781 -9.328125 33.492188 -5.453125 29.828125 -2.640625 C 26.171875 0.160156 21.738281 1.5625 16.53125 1.5625 C 13.519531 1.5625 10.957031 0.859375 8.84375 -0.546875 C 6.738281 -1.953125 5.128906 -3.8125 4.015625 -6.125 C 2.898438 -8.4375 2.34375 -10.945312 2.34375 -13.65625 Z M 8.96875 -15.125 C 8.96875 -11.488281 10.054688 -8.421875 12.234375 -5.921875 C 14.421875 -3.429688 17.414062 -2.1875 21.21875 -2.1875 C 24.488281 -2.1875 27.320312 -3.066406 29.71875 -4.828125 C 32.113281 -6.597656 34.101562 -8.910156 35.6875 -11.765625 C 37.269531 -14.628906 38.453125 -17.75 39.234375 -21.125 C 40.015625 -24.507812 40.40625 -27.789062 40.40625 -30.96875 C 40.40625 -33.875 40.3125 -36.472656 40.125 -38.765625 C 39.945312 -41.054688 39.492188 -43.34375 38.765625 -45.625 L 29.328125 -70.515625 L 20.359375 -46.640625 C 19.835938 -45.285156 19.691406 -44.335938 19.921875 -43.796875 C 20.160156 -43.253906 20.59375 -42.984375 21.21875 -42.984375 C 22.101562 -42.984375 22.957031 -43.394531 23.78125 -44.21875 C 24.613281 -45.050781 25.445312 -46 26.28125 -47.0625 C 27.113281 -48.132812 27.984375 -49.085938 28.890625 -49.921875 C 29.804688 -50.753906 30.785156 -51.171875 31.828125 -51.171875 C 32.554688 -51.171875 33.164062 -50.921875 33.65625 -50.421875 C 34.144531 -49.929688 34.390625 -49.164062 34.390625 -48.125 C 34.390625 -46.40625 33.78125 -44.832031 32.5625 -43.40625 C 31.34375 -41.976562 29.769531 -40.585938 27.84375 -39.234375 C 25.914062 -37.878906 23.859375 -36.445312 21.671875 -34.9375 C 19.492188 -33.4375 17.441406 -31.757812 15.515625 -29.90625 C 13.597656 -28.0625 12.023438 -25.941406 10.796875 -23.546875 C 9.578125 -21.160156 8.96875 -18.351562 8.96875 -15.125 Z M 8.96875 -15.125 "/></g></g></g><g fill="#ffffff" fill-opacity="1"><g transform="translate(493.723923, 434.624998)"><g><path d="M 2.34375 0 L 2.34375 -0.78125 C 4.570312 -0.78125 6.191406 -1.457031 7.203125 -2.8125 C 8.222656 -4.164062 8.863281 -6.375 9.125 -9.4375 C 9.382812 -12.507812 9.515625 -16.59375 9.515625 -21.6875 L 9.515625 -56.3125 C 9.515625 -61.457031 9.382812 -65.550781 9.125 -68.59375 C 8.863281 -71.644531 8.222656 -73.84375 7.203125 -75.1875 C 6.191406 -76.539062 4.570312 -77.21875 2.34375 -77.21875 L 2.34375 -78 L 11.703125 -78 C 14.554688 -78 17.164062 -78.128906 19.53125 -78.390625 C 21.90625 -78.648438 24.300781 -78.910156 26.71875 -79.171875 C 29.132812 -79.429688 31.847656 -79.5625 34.859375 -79.5625 C 40.429688 -79.5625 45.140625 -78.609375 48.984375 -76.703125 C 52.828125 -74.804688 55.75 -72.21875 57.75 -68.9375 C 59.757812 -65.664062 60.765625 -61.898438 60.765625 -57.640625 C 60.765625 -54.109375 59.835938 -50.78125 57.984375 -47.65625 C 56.140625 -44.539062 53.550781 -42.03125 50.21875 -40.125 C 46.894531 -38.226562 42.972656 -37.28125 38.453125 -37.28125 C 36.628906 -37.28125 34.9375 -37.523438 33.375 -38.015625 C 31.820312 -38.515625 30.40625 -39.101562 29.125 -39.78125 C 27.851562 -40.457031 26.695312 -41.039062 25.65625 -41.53125 C 24.625 -42.03125 23.691406 -42.28125 22.859375 -42.28125 C 22.390625 -42.28125 21.894531 -42.160156 21.375 -41.921875 C 20.851562 -41.691406 20.59375 -41.132812 20.59375 -40.25 C 20.59375 -39.257812 21.164062 -38.375 22.3125 -37.59375 C 23.457031 -36.8125 24.9375 -36.03125 26.75 -35.25 C 28.570312 -34.476562 30.519531 -33.625 32.59375 -32.6875 C 34.675781 -31.75 36.679688 -30.601562 38.609375 -29.25 C 40.535156 -27.894531 42.125 -26.234375 43.375 -24.265625 C 44.925781 -21.867188 46.535156 -19.304688 48.203125 -16.578125 C 49.867188 -13.847656 51.625 -11.285156 53.46875 -8.890625 C 55.3125 -6.492188 57.25 -4.539062 59.28125 -3.03125 C 61.3125 -1.53125 63.441406 -0.78125 65.671875 -0.78125 L 65.671875 0 L 53.734375 0 C 52.859375 0 51.988281 -0.363281 51.125 -1.09375 C 50.269531 -1.820312 49.21875 -3.054688 47.96875 -4.796875 C 46.71875 -6.535156 45.117188 -8.910156 43.171875 -11.921875 C 41.222656 -14.941406 38.710938 -18.769531 35.640625 -23.40625 C 33.773438 -26.257812 31.90625 -28.519531 30.03125 -30.1875 C 28.15625 -31.851562 26.453125 -33.191406 24.921875 -34.203125 C 23.390625 -35.210938 22.15625 -36.171875 21.21875 -37.078125 C 20.28125 -37.992188 19.8125 -39.101562 19.8125 -40.40625 C 19.8125 -41.34375 20.097656 -42.019531 20.671875 -42.4375 C 21.242188 -42.851562 21.867188 -43.0625 22.546875 -43.0625 C 23.691406 -43.0625 24.804688 -42.835938 25.890625 -42.390625 C 26.984375 -41.953125 28.113281 -41.429688 29.28125 -40.828125 C 30.457031 -40.234375 31.742188 -39.710938 33.140625 -39.265625 C 34.546875 -38.828125 36.160156 -38.609375 37.984375 -38.609375 C 40.429688 -38.609375 42.640625 -39.15625 44.609375 -40.25 C 46.585938 -41.34375 48.28125 -42.785156 49.6875 -44.578125 C 51.09375 -46.367188 52.171875 -48.394531 52.921875 -50.65625 C 53.671875 -52.914062 54.046875 -55.21875 54.046875 -57.5625 C 54.046875 -61.875 53.082031 -65.585938 51.15625 -68.703125 C 49.238281 -71.828125 46.507812 -74.234375 42.96875 -75.921875 C 39.4375 -77.617188 35.253906 -78.46875 30.421875 -78.46875 C 27.554688 -78.46875 25.054688 -78.269531 22.921875 -77.875 C 20.796875 -77.488281 18.535156 -76.851562 16.140625 -75.96875 L 16.140625 -21.6875 C 16.140625 -16.59375 16.269531 -12.507812 16.53125 -9.4375 C 16.789062 -6.375 17.425781 -4.164062 18.4375 -2.8125 C 19.457031 -1.457031 21.085938 -0.78125 23.328125 -0.78125 L 23.328125 0 Z M 2.34375 0 "/></g></g></g><g fill="#ffffff" fill-opacity="1"><g transform="translate(417.139543, 434.624998)"><g><path d="M 2.34375 -13.65625 C 2.34375 -16.875 3.09375 -19.769531 4.59375 -22.34375 C 6.101562 -24.914062 8.039062 -27.253906 10.40625 -29.359375 C 12.78125 -31.472656 15.289062 -33.398438 17.9375 -35.140625 C 20.59375 -36.878906 23.101562 -38.488281 25.46875 -39.96875 C 27.832031 -41.457031 29.769531 -42.875 31.28125 -44.21875 C 32.789062 -45.570312 33.546875 -46.925781 33.546875 -48.28125 C 33.546875 -49.007812 33.363281 -49.539062 33 -49.875 C 32.632812 -50.21875 32.191406 -50.390625 31.671875 -50.390625 C 30.734375 -50.390625 29.859375 -49.972656 29.046875 -49.140625 C 28.242188 -48.304688 27.453125 -47.351562 26.671875 -46.28125 C 25.890625 -45.21875 25.046875 -44.269531 24.140625 -43.4375 C 23.234375 -42.613281 22.234375 -42.203125 21.140625 -42.203125 C 20.046875 -42.203125 19.378906 -42.640625 19.140625 -43.515625 C 18.910156 -44.398438 18.976562 -45.335938 19.34375 -46.328125 C 20.539062 -49.453125 21.632812 -52.351562 22.625 -55.03125 C 23.613281 -57.707031 24.585938 -60.304688 25.546875 -62.828125 C 26.503906 -65.347656 27.488281 -67.957031 28.5 -70.65625 C 29.519531 -73.363281 30.65625 -76.332031 31.90625 -79.5625 L 32.6875 -79.5625 L 57.640625 -13.65625 C 59.359375 -9.382812 60.96875 -6.171875 62.46875 -4.015625 C 63.976562 -1.859375 65.929688 -0.78125 68.328125 -0.78125 L 68.328125 0 L 42.75 0 L 42.75 -0.78125 C 45.5 -0.78125 47.585938 -1.144531 49.015625 -1.875 C 50.453125 -2.601562 51.378906 -3.613281 51.796875 -4.90625 C 52.210938 -6.207031 52.265625 -7.71875 51.953125 -9.4375 C 51.640625 -11.15625 51.117188 -13 50.390625 -14.96875 L 40.71875 -40.484375 C 41.03125 -37.984375 41.1875 -34.863281 41.1875 -31.125 C 41.1875 -24.832031 40.207031 -19.210938 38.25 -14.265625 C 36.300781 -9.328125 33.492188 -5.453125 29.828125 -2.640625 C 26.171875 0.160156 21.738281 1.5625 16.53125 1.5625 C 13.519531 1.5625 10.957031 0.859375 8.84375 -0.546875 C 6.738281 -1.953125 5.128906 -3.8125 4.015625 -6.125 C 2.898438 -8.4375 2.34375 -10.945312 2.34375 -13.65625 Z M 8.96875 -15.125 C 8.96875 -11.488281 10.054688 -8.421875 12.234375 -5.921875 C 14.421875 -3.429688 17.414062 -2.1875 21.21875 -2.1875 C 24.488281 -2.1875 27.320312 -3.066406 29.71875 -4.828125 C 32.113281 -6.597656 34.101562 -8.910156 35.6875 -11.765625 C 37.269531 -14.628906 38.453125 -17.75 39.234375 -21.125 C 40.015625 -24.507812 40.40625 -27.789062 40.40625 -30.96875 C 40.40625 -33.875 40.3125 -36.472656 40.125 -38.765625 C 39.945312 -41.054688 39.492188 -43.34375 38.765625 -45.625 L 29.328125 -70.515625 L 20.359375 -46.640625 C 19.835938 -45.285156 19.691406 -44.335938 19.921875 -43.796875 C 20.160156 -43.253906 20.59375 -42.984375 21.21875 -42.984375 C 22.101562 -42.984375 22.957031 -43.394531 23.78125 -44.21875 C 24.613281 -45.050781 25.445312 -46 26.28125 -47.0625 C 27.113281 -48.132812 27.984375 -49.085938 28.890625 -49.921875 C 29.804688 -50.753906 30.785156 -51.171875 31.828125 -51.171875 C 32.554688 -51.171875 33.164062 -50.921875 33.65625 -50.421875 C 34.144531 -49.929688 34.390625 -49.164062 34.390625 -48.125 C 34.390625 -46.40625 33.78125 -44.832031 32.5625 -43.40625 C 31.34375 -41.976562 29.769531 -40.585938 27.84375 -39.234375 C 25.914062 -37.878906 23.859375 -36.445312 21.671875 -34.9375 C 19.492188 -33.4375 17.441406 -31.757812 15.515625 -29.90625 C 13.597656 -28.0625 12.023438 -25.941406 10.796875 -23.546875 C 9.578125 -21.160156 8.96875 -18.351562 8.96875 -15.125 Z M 8.96875 -15.125 "/></g></g></g></svg>